<mxfile host="app.diagrams.net" modified="2025-09-29T09:32:00.000Z" agent="5.0" etag="template" version="24.7.17">
  <diagram name="Kainos Studio Architecture" id="architecture">
    <mxGraphModel dx="1422" dy="794" grid="1" gridSize="10" guides="1" tooltips="1" connect="1" arrows="1" fold="1" page="1" pageScale="1" pageWidth="1169" pageHeight="827" math="0" shadow="0">
      <root>
        <mxCell id="0" />
        <mxCell id="1" parent="0" />
        
        <!-- Title -->
        <mxCell id="title" value="Kainos Studio - End-to-End Architecture" style="text;html=1;strokeColor=none;fillColor=none;align=center;verticalAlign=middle;whiteSpace=wrap;rounded=0;fontSize=20;fontStyle=1;" vertex="1" parent="1">
          <mxGeometry x="400" y="20" width="369" height="30" as="geometry" />
        </mxCell>
        
        <!-- AWS Section -->
        <mxCell id="aws-section" value="AWS Infrastructure" style="rounded=1;whiteSpace=wrap;html=1;fillColor=#FFE6CC;strokeColor=#D79B00;fontSize=16;fontStyle=1;verticalAlign=top;" vertex="1" parent="1">
          <mxGeometry x="50" y="80" width="500" height="300" as="geometry" />
        </mxCell>
        
        <!-- Azure Section -->
        <mxCell id="azure-section" value="Azure Infrastructure" style="rounded=1;whiteSpace=wrap;html=1;fillColor=#CCE5FF;strokeColor=#0066CC;fontSize=16;fontStyle=1;verticalAlign=top;" vertex="1" parent="1">
          <mxGeometry x="600" y="80" width="500" height="300" as="geometry" />
        </mxCell>
        
        <!-- GitHub Actions -->
        <mxCell id="github" value="GitHub Actions&#xa;CI/CD Pipeline" style="rounded=1;whiteSpace=wrap;html=1;fillColor=#E1D5E7;strokeColor=#9673A6;" vertex="1" parent="1">
          <mxGeometry x="450" y="420" width="120" height="60" as="geometry" />
        </mxCell>
        
        <!-- Users -->
        <mxCell id="users" value="End Users" style="shape=umlActor;verticalLabelPosition=bottom;verticalAlign=top;html=1;outlineConnect=0;" vertex="1" parent="1">
          <mxGeometry x="495" y="520" width="30" height="60" as="geometry" />
        </mxCell>
        
        <!-- Note for Draw.io editing -->
        <mxCell id="note" value="NOTE: This is a template. Open in Draw.io to add:&#xa;• AWS Lambda, S3, CloudWatch components&#xa;• Azure Functions, Storage, Monitor components&#xa;• Network connections and data flows&#xa;• Security boundaries and zones&#xa;• Environment-specific details" style="text;html=1;strokeColor=#d6b656;fillColor=#fff2cc;align=left;verticalAlign=top;whiteSpace=wrap;rounded=1;" vertex="1" parent="1">
          <mxGeometry x="50" y="420" width="350" height="100" as="geometry" />
        </mxCell>
        
      </root>
    </mxGraphModel>
  </diagram>
</mxfile>
